# xmcd
#
# Track frame offsets: 
#        150
#        30709
#        62118
#        85983
#        106379
#        146175
#        168988
#        230466
#
# Disc length: 3583 seconds
#
# Revision: 0
# Processed by: cddbd v1.5.1PL0 Copyright (c) Steve Scherf et al.
# Submitted via: ExactAudioCopy v0.95a5
#
DISCID=6a0dfd08
DTITLE=Soju Kings - Live at Funky Funky
DYEAR=2004
DGENRE=Blues
TTITLE0=Poor Man's Game
TTITLE1=Dust My Broom
TTITLE2=Goin Fishing
TTITLE3=Jellybean
TTITLE4=Get With You
TTITLE5=Soju King
TTITLE6=Love Me With Your Soul, I'm Ready, Bring Me To The Front
TTITLE7=Got My Mojo Workin
EXTD=
EXTT0=
EXTT1=
EXTT2=
EXTT3=
EXTT4=
EXTT5=
EXTT6=
EXTT7=
PLAYORDER=
